<?xml version="1.0" encoding="UTF-8"?>
<svg version="1.1" xmlns="http://www.w3.org/2000/svg" width="1500" height="500" viewBox="490 165 610 175">
<path d="M0 0 C1.03125 0.391875 2.0625 0.78375 3.125 1.1875 C15.85830632 6.5810839 23.60179249 16.64296574 29 29 C29.49886719 30.13308594 29.49886719 30.13308594 30.0078125 31.2890625 C31.18656469 34.50974762 31.87622417 37.70298217 32.5625 41.0625 C33.03893687 43.37556395 33.51778704 45.68813331 34 48 C34.11214844 48.76183594 34.22429687 49.52367187 34.33984375 50.30859375 C34.85744289 52.1450379 34.85744289 52.1450379 36.66015625 52.9921875 C37.81837891 53.49105469 37.81837891 53.49105469 39 54 C41.15980546 55.35727018 43.30234375 56.73016098 45.4375 58.125 C57.76737642 66.26066622 57.76737642 66.26066622 70.6875 73.375 C74 75 74 75 76 77 C76.46859716 81.96712985 76.16124524 85.07569556 73 89 C65.92674191 94.82503608 54.4161351 93.10903449 45.8125 92.8125 C44.58813232 92.77205566 43.36376465 92.73161133 42.10229492 92.68994141 C33.27858134 92.30822051 24.80734206 91.22636734 16.19262695 89.28442383 C10.15271094 87.96680734 3.73258552 87.13370724 -2 90 C-2.54682871 100.02519297 1.00689481 107.20718514 5.51171875 116.015625 C11.24002469 127.50230674 16.14567833 141.41908196 12.3125 154.3125 C10.15505562 158.48355914 7.09613086 160.87001195 3 163 C-18.85615051 167.85335107 -42.19134643 161.42539708 -60.75 149.75 C-61.4925 149.1725 -62.235 148.595 -63 148 C-63 147.34 -63 146.68 -63 146 C-64.32 145.67 -65.64 145.34 -67 145 C-67 144.34 -67 143.68 -67 143 C-67.99 142.67 -68.98 142.34 -70 142 C-78.81486005 133.20922427 -81.63529155 121.80203534 -81.69473267 109.76837158 C-81.6857774 108.24661473 -81.67552105 106.72486506 -81.6640625 105.203125 C-81.6674423 103.59950393 -81.67230452 101.99588538 -81.67855835 100.39227295 C-81.68588361 97.04707213 -81.67537242 93.70254377 -81.65185547 90.35742188 C-81.62346241 86.116919 -81.63973792 81.87800571 -81.66971779 77.6375618 C-81.68798974 74.32900533 -81.68194158 71.02081092 -81.66907883 67.71224213 C-81.66579449 66.15129142 -81.66965188 64.59030543 -81.68147659 63.02939606 C-81.79063415 44.56772714 -76.49164044 28.10288162 -64.625 13.625 C-63.75875 12.75875 -62.8925 11.8925 -62 11 C-61.34 11 -60.68 11 -60 11 C-60 10.34 -60 9.68 -60 9 C-58.57421875 7.7109375 -58.57421875 7.7109375 -56.6875 6.375 C-55.76517578 5.70597656 -55.76517578 5.70597656 -54.82421875 5.0234375 C-53 4 -53 4 -50 4 C-50 3.34 -50 2.68 -50 2 C-43.375 -1 -43.375 -1 -40 -1 C-40 -1.66 -40 -2.32 -40 -3 C-9.56361897 -6.54352877 -9.56361897 -6.54352877 0 0 Z M-9 38 C-10.6000515 41.20010301 -10.49514569 44.52710317 -10 48 C-8.04950296 50.81738461 -6.71542632 51.74960079 -3.5 52.875 C-0.64666982 53.01766651 0.65288569 52.59268471 3 51 C4.59875351 47.80249299 4.50166324 44.47041009 4 41 C2.19890388 38.4913304 0.85201005 37.38477873 -1.9375 36.125 C-4.73683009 35.95534363 -6.52640068 36.72977332 -9 38 Z " fill="#FDCF24" transform="translate(572,171)"/>
<path d="M0 0 C2 3 2 3 2.375 5.0625 C2.79456675 7.13521786 2.79456675 7.13521786 4.63671875 7.86328125 C5.41660156 8.23839844 6.19648437 8.61351562 7 9 C9.15980546 10.35727018 11.30234375 11.73016098 13.4375 13.125 C25.76737642 21.26066622 25.76737642 21.26066622 38.6875 28.375 C42 30 42 30 44 32 C44.46859716 36.96712985 44.16124524 40.07569556 41 44 C31.35443547 51.94340608 10.491294 48.05211262 -1 47 C-9.7479462 45.76364734 -18.38920365 43.9643785 -27 42 C-25.25177905 40.17093646 -23.83791359 38.9061605 -21.625 37.625 C-10.96021602 31.02299087 -3.90324348 19.91952759 -1 8 C-0.54791241 5.32622484 -0.25028406 2.70306785 0 0 Z " fill="#F27C12" transform="translate(604,216)"/>
<path d="M0 0 C4 0 8 0 12 0 C13.093125 -0.061875 14.18625 -0.12375 15.3125 -0.1875 C19 0 19 0 21.875 1.6875 C26.01626574 3.42683161 27.60998403 2.28422336 31.6328125 0.7265625 C35.57447545 -0.48325484 39.08632175 -0.2262369 43 1 C46.00058132 2.80538121 48.40660687 4.81321374 50 8 C50.08426094 9.6674606 50.10725143 11.33825187 50.09765625 13.0078125 C50.09443359 13.99394531 50.09121094 14.98007813 50.08789062 15.99609375 C50.07532227 17.54490234 50.07532227 17.54490234 50.0625 19.125 C50.05798828 20.16527344 50.05347656 21.20554687 50.04882812 22.27734375 C50.03701952 24.85161962 50.02055075 27.42578146 50 30 C47.36 30 44.72 30 42 30 C41.95101562 28.80761719 41.90203125 27.61523438 41.8515625 26.38671875 C41.77652396 24.82028932 41.7009766 23.25388421 41.625 21.6875 C41.5940625 20.90181641 41.563125 20.11613281 41.53125 19.30664062 C41.47324219 18.1706543 41.47324219 18.1706543 41.4140625 17.01171875 C41.3826416 16.31522217 41.3512207 15.61872559 41.31884766 14.90112305 C41.07881747 12.67467261 41.07881747 12.67467261 39 10 C35.45812169 9.66661404 35.45812169 9.66661404 32 10 C30.45049732 11.54950268 30.78344807 13.09990594 30.68359375 15.25390625 C30.64169922 16.10791016 30.59980469 16.96191406 30.55664062 17.84179688 C30.51732422 18.73962891 30.47800781 19.63746094 30.4375 20.5625 C30.39431641 21.46419922 30.35113281 22.36589844 30.30664062 23.29492188 C30.20022016 25.52975156 30.09957519 27.76485486 30 30 C27.03 30 24.06 30 21 30 C20.95101562 28.72382813 20.90203125 27.44765625 20.8515625 26.1328125 C20.77653809 24.46351928 20.70099012 22.79424954 20.625 21.125 C20.5940625 20.28324219 20.563125 19.44148438 20.53125 18.57421875 C20.49257813 17.76855469 20.45390625 16.96289062 20.4140625 16.1328125 C20.36693115 15.01737061 20.36693115 15.01737061 20.31884766 13.87939453 C20.14580449 11.75989026 20.14580449 11.75989026 18 10 C14.41656024 9.83322718 14.41656024 9.83322718 11 10 C9.88176185 12.23647631 9.80603939 13.64891529 9.68359375 16.1328125 C9.64169922 16.93847656 9.59980469 17.74414062 9.55664062 18.57421875 C9.49766602 19.83685547 9.49766602 19.83685547 9.4375 21.125 C9.39431641 21.97449219 9.35113281 22.82398438 9.30664062 23.69921875 C9.20045764 25.79928223 9.09971503 27.89961948 9 30 C6.03 30 3.06 30 0 30 C0 20.1 0 10.2 0 0 Z " fill="#F27B13" transform="translate(819,237)"/>
<path d="M0 0 C3.34125 -0.061875 6.6825 -0.12375 10.125 -0.1875 C11.68758545 -0.22846802 11.68758545 -0.22846802 13.28173828 -0.27026367 C18.61571574 -0.31797091 22.42378369 -0.06276546 27 3 C31.59964258 7.80871724 34.02299578 11.68119478 34.375 18.3125 C34.20090398 24.85198182 31.70816352 29.21419268 27.25 33.875 C18.50080732 39.59562598 10.79777899 38 0 38 C0 25.46 0 12.92 0 0 Z M10 9 C10 15.27 10 21.54 10 28 C16.65067807 28.55781529 16.65067807 28.55781529 21.5 26 C24.28806101 22.65432678 24.84677993 21.16048925 24.53515625 16.93359375 C23.63221605 13.67114558 21.59110191 12.03586579 19 10 C16.32917961 8.47825081 16.32917961 8.47825081 10 9 Z " fill="#FED113" transform="translate(961,230)"/>
<path d="M0 0 C4 0 8 0 12 0 C13.093125 -0.061875 14.18625 -0.12375 15.3125 -0.1875 C19.97384 0.04951729 23.07887421 1.1047654 26.44921875 4.4296875 C30.60832268 9.2204032 31.42456273 12.73769972 31 19 C29.25583626 23.68170268 27.12964161 26.21249191 23 29 C20.17283905 29.94238698 18.36823877 30.13465647 15.4375 30.125 C14.65246094 30.12757813 13.86742187 30.13015625 13.05859375 30.1328125 C11 30 11 30 9 29 C9 32.96 9 36.92 9 41 C6.03 41 3.06 41 0 41 C0 27.47 0 13.94 0 0 Z M10.625 10.6875 C8.84807743 12.88575314 8.84807743 12.88575314 8.5 15.5 C8.85938071 18.10963005 8.85938071 18.10963005 10.5625 20.375 C13.01459258 22.34359806 13.01459258 22.34359806 16.625 21.9375 C20.25516924 21.3249155 20.25516924 21.3249155 22 18 C22.32502803 14.87973093 22.51151479 12.85252465 20.875 10.125 C17.16285677 7.89771406 14.086692 8.22787673 10.625 10.6875 Z " fill="#F27B13" transform="translate(752,237)"/>
<path d="M0 0 C2.97 0 5.94 0 9 0 C9.33 5.61 9.66 11.22 10 17 C10.9075 15.845 11.815 14.69 12.75 13.5 C15.26616374 10.92158066 16.52935803 10.06974644 20.13671875 9.53515625 C23.11852587 9.55985761 26.03459654 9.69323412 29 10 C27.52278578 13.45201639 25.56205999 15.64961936 22.875 18.25 C22.15054687 18.95640625 21.42609375 19.6628125 20.6796875 20.390625 C20.12539062 20.92171875 19.57109375 21.4528125 19 22 C20.72221672 26.2017938 23.67682719 29.30907355 26.625 32.6875 C32 38.87546875 32 38.87546875 32 40 C27.86851792 40.55775008 24.1125208 40.76921233 20 40 C17.34380331 37.87752507 15.52624972 35.70677177 13.5234375 32.96875 C13.02070312 32.3190625 12.51796875 31.669375 12 31 C11.34 31 10.68 31 10 31 C9.67 33.97 9.34 36.94 9 40 C6.03 40 3.06 40 0 40 C0 26.8 0 13.6 0 0 Z " fill="#FDD113" transform="translate(1056,227)"/>
<path d="M0 0 C3.5677811 2.35149209 5.84221079 4.99692157 7.75 8.8125 C7.75 11.4525 7.75 14.0925 7.75 16.8125 C-2.15 17.3075 -2.15 17.3075 -12.25 17.8125 C-8.94346387 20.01685742 -8.06653268 20.08510948 -4.25 19.8125 C-3.425 19.60625 -2.6 19.4 -1.75 19.1875 C1.3258862 18.72611707 2.99131338 19.4725665 5.75 20.8125 C4.82703752 23.91701017 4.17769901 25.49719456 1.53515625 27.4453125 C-3.27571695 29.80689121 -8.02506652 29.66949967 -13.25 28.8125 C-17.13658 26.8022 -19.44554514 24.14159934 -21.6875 20.4375 C-22.83085375 15.10184917 -23.09650391 10.83522185 -20.5 6 C-15.37220713 -1.26437324 -8.31804052 -3.03928404 0 0 Z M-10.25 7.8125 C-11.24 9.2975 -11.24 9.2975 -12.25 10.8125 C-8.62 10.8125 -4.99 10.8125 -1.25 10.8125 C-3.91175022 7.53482782 -3.91175022 7.53482782 -7.3125 7.4375 C-8.281875 7.56125 -9.25125 7.685 -10.25 7.8125 Z " fill="#F27B13" transform="translate(931.25,238.1875)"/>
<path d="M0 0 C8.58 0 17.16 0 26 0 C26 9 26 9 23.375 12.50390625 C22.27230842 13.54752507 21.14642644 14.56712299 20 15.5625 C19.42765625 16.09423828 18.8553125 16.62597656 18.265625 17.17382812 C16.86344707 18.47084271 15.4342929 19.73859062 14 21 C17.96 21.33 21.92 21.66 26 22 C26 24.64 26 27.28 26 30 C17.42 30 8.84 30 0 30 C0 21 0 21 2.40625 17.71484375 C3.41522499 16.76483483 4.44733692 15.83885893 5.5 14.9375 C6.02464844 14.45345703 6.54929687 13.96941406 7.08984375 13.47070312 C8.37356169 12.29201665 9.68420956 11.14277254 11 10 C7.37 9.67 3.74 9.34 0 9 C0 6.03 0 3.06 0 0 Z " fill="#F27B13" transform="translate(883,237)"/>
<path d="M0 0 C2.97 0 5.94 0 9 0 C9.03738281 1.26457031 9.07476563 2.52914062 9.11328125 3.83203125 C9.17893833 5.4922173 9.24538576 7.15237222 9.3125 8.8125 C9.33505859 9.64587891 9.35761719 10.47925781 9.38085938 11.33789062 C9.41630859 12.14033203 9.45175781 12.94277344 9.48828125 13.76953125 C9.51446533 14.50792236 9.54064941 15.24631348 9.56762695 16.00708008 C10.11588621 18.53414973 10.92792195 19.48023279 13 21 C16.83266292 20.85909916 16.83266292 20.85909916 20 19 C20.15620555 17.58672053 20.25056173 16.1664541 20.31640625 14.74609375 C20.35830078 13.89208984 20.40019531 13.03808594 20.44335938 12.15820312 C20.48267578 11.26037109 20.52199219 10.36253906 20.5625 9.4375 C20.60568359 8.53580078 20.64886719 7.63410156 20.69335938 6.70507812 C20.79977984 4.47024844 20.90042481 2.23514514 21 0 C23.97 0 26.94 0 30 0 C30 9.9 30 19.8 30 30 C26.679375 30.12375 23.35875 30.2475 19.9375 30.375 C18.90488037 30.42962402 17.87226074 30.48424805 16.80834961 30.54052734 C10.85411106 30.64735558 7.61263292 29.79267921 3.28710938 25.62890625 C-1.98238274 18.96008011 -0.17509476 8.0154492 0 0 Z " fill="#FED013" transform="translate(997,237)"/>
<path d="M0 0 C3.5677811 2.35149209 5.84221079 4.99692157 7.75 8.8125 C8.27038648 14.46669928 8.50782276 19.2494295 4.75 23.8125 C1.78127359 27.15231721 -0.19082685 28.55346389 -4.703125 29.12109375 C-9.7747129 29.35484012 -13.30050286 29.41568498 -17.3125 26.0625 C-20.81393906 22.67235363 -22.53790206 19.40361425 -22.625 14.5 C-22.51077244 9.54741955 -21.13253466 6.81602036 -18.25 2.8125 C-12.96423762 -1.99273852 -6.51618024 -2.38091201 0 0 Z M-12.75 9.9375 C-14.59345984 12.75853638 -14.59345984 12.75853638 -13.6875 16 C-12.4145271 19.05557478 -12.4145271 19.05557478 -9.25 20.8125 C-6.79290625 21.39600505 -6.79290625 21.39600505 -4.25 20.8125 C-1.74602502 18.72420257 -1.74602502 18.72420257 -0.25 15.8125 C-0.31892419 12.91768392 -0.86138683 11.40564642 -2.4375 9 C-6.31981261 6.45641588 -9.33432717 7.0341781 -12.75 9.9375 Z " fill="#F27B13" transform="translate(742.25,238.1875)"/>
<path d="M0 0 C2.97 0 5.94 0 9 0 C9 3.3 9 6.6 9 10 C11.31 10 13.62 10 16 10 C16 12.97 16 15.94 16 19 C13.69 19 11.38 19 9 19 C9 25.93 9 32.86 9 40 C6.03 40 3.06 40 0 40 C0 33.07 0 26.14 0 19 C-2.31 19 -4.62 19 -7 19 C-7 16.03 -7 13.06 -7 10 C-4.69 10 -2.38 10 0 10 C0 6.7 0 3.4 0 0 Z " fill="#F27B13" transform="translate(789,227)"/>
<path d="M0 0 C1.2375 0.7425 1.2375 0.7425 2.5 1.5 C2.5 4.5 2.5 4.5 0.625 6.6875 C-3.75538417 9.22812282 -7.55186334 8.84588916 -12.5 8.5 C-13.17464772 11.46844996 -13.64843292 13.81349776 -13 16.8125 C-10.62155718 19.48824818 -7.95310188 19.2023188 -4.5 19.5 C-1.17603563 20.05399406 0.28173357 20.9489936 2.5 23.5 C0.75 27.375 0.75 27.375 -1.5 28.5 C-6.72840334 29.02113171 -11.14036754 29.14273534 -15.9375 26.875 C-20.1574068 22.96386687 -22.71115636 19.85541145 -22.9375 14 C-22.66083505 8.51281187 -21.06920133 4.95151123 -17 1.1875 C-11.55586144 -2.48729352 -5.86742142 -2.51460918 0 0 Z " fill="#FED112" transform="translate(1051.5,238.5)"/>
<path d="M0 0 C6.33333333 0 12.66666667 0 19 0 C19 2.97 19 5.94 19 9 C17.329375 9.680625 17.329375 9.680625 15.625 10.375 C12.03800992 11.72465986 12.03800992 11.72465986 10 14 C9.6936141 16.73434962 9.4886664 19.38279821 9.375 22.125 C9.31699219 23.25615234 9.31699219 23.25615234 9.2578125 24.41015625 C9.16348969 26.27303184 9.08065338 28.13648255 9 30 C6.03 30 3.06 30 0 30 C0 20.1 0 10.2 0 0 Z " fill="#F27B13" transform="translate(941,237)"/>
<path d="M0 0 C2.97 0 5.94 0 9 0 C9 9.9 9 19.8 9 30 C6.03 30 3.06 30 0 30 C0 20.1 0 10.2 0 0 Z " fill="#F27B13" transform="translate(872,237)"/>
<path d="M0 0 C2.97 0 5.94 0 9 0 C9 9.9 9 19.8 9 30 C6.03 30 3.06 30 0 30 C0 20.1 0 10.2 0 0 Z " fill="#F27B13" transform="translate(807,237)"/>
<path d="M0 0 C1.3721192 3.70472184 0.4863484 5.44927883 -1 9 C-1.88288867 13.99720853 -2.15309628 18.88937916 -2.16113281 23.95141602 C-2.16609772 24.71333252 -2.17106262 25.47524902 -2.17617798 26.26025391 C-2.19067712 28.75814747 -2.19757856 31.25597769 -2.203125 33.75390625 C-2.20595238 34.61157026 -2.20877975 35.46923428 -2.21169281 36.35288811 C-2.2266305 40.88557107 -2.23589601 45.41822261 -2.24023438 49.95092773 C-2.24573202 54.62372333 -2.26980261 59.29622946 -2.29820633 63.96893406 C-2.31684744 67.57294049 -2.32203894 71.17687709 -2.32357025 74.78092766 C-2.32659054 76.50366752 -2.33459798 78.22640633 -2.34775543 79.94909859 C-2.36485809 82.35894955 -2.36292642 84.76809107 -2.35644531 87.17797852 C-2.3656601 87.88411789 -2.37487488 88.59025726 -2.3843689 89.3177948 C-2.34536682 93.95988861 -1.25266 96.98145683 1 101 C1 101.66 1 102.32 1 103 C0.34 103 -0.32 103 -1 103 C-6.06124862 93.38023661 -6.74375865 84.78708832 -6.6640625 74.203125 C-6.6674423 72.59950393 -6.67230452 70.99588538 -6.67855835 69.39227295 C-6.68588361 66.04707213 -6.67537242 62.70254377 -6.65185547 59.35742188 C-6.62346241 55.116919 -6.63973792 50.87800571 -6.66971779 46.6375618 C-6.68798974 43.32900533 -6.68194158 40.02081092 -6.66907883 36.71224213 C-6.66579449 35.15129142 -6.66965188 33.59030543 -6.68147659 32.02939606 C-6.74720693 20.91251422 -5.05889169 11.38461208 -1 1 C-0.67 0.67 -0.34 0.34 0 0 Z " fill="#EAD538" transform="translate(497,202)"/>
<path d="M0 0 C1.11375 0.45375 2.2275 0.9075 3.375 1.375 C7.41018783 3.1838773 10.48042857 5.34236443 14 8 C13.67 8.99 13.34 9.98 13 11 C12.443125 10.61328125 11.88625 10.2265625 11.3125 9.828125 C-2.54508732 0.37125798 -15.80292107 -3.1069174 -32.81640625 -0.58203125 C-34.89468997 -0.12665772 -36.95051349 0.42883163 -39 1 C-39.71800781 1.14566406 -40.43601562 1.29132813 -41.17578125 1.44140625 C-41.77777344 1.62574219 -42.37976563 1.81007812 -43 2 C-43.33 2.66 -43.66 3.32 -44 4 C-45.32 3.67 -46.64 3.34 -48 3 C-48.185625 3.78375 -48.37125 4.5675 -48.5625 5.375 C-50 8 -50 8 -53.5 9.25 C-54.655 9.4975 -55.81 9.745 -57 10 C-57.99 10.495 -57.99 10.495 -59 11 C-57.61198929 7.64564078 -56.11371 5.88709697 -53 4 C-52.01 4 -51.02 4 -50 4 C-50 3.34 -50 2.68 -50 2 C-43.375 -1 -43.375 -1 -40 -1 C-40 -1.66 -40 -2.32 -40 -3 C-9.56361897 -6.54352877 -9.56361897 -6.54352877 0 0 Z " fill="#F5E53C" transform="translate(572,171)"/>
<path d="M0 0 C0.66 0 1.32 0 2 0 C2.95745279 1.1119784 3.86483238 2.2671624 4.75 3.4375 C11.78559805 11.7094793 21.66311285 17.07121531 32 20 C32.66 20.66 33.32 21.32 34 22 C38.98513234 24.09900309 44.16834029 24.7046176 49.48828125 25.4375 C50.31714844 25.623125 51.14601563 25.80875 52 26 C52.495 26.99 52.495 26.99 53 28 C38.80650625 29.24504331 22.0816366 21.61905069 11 13 C11 12.34 11 11.68 11 11 C9.68 10.67 8.36 10.34 7 10 C7 9.34 7 8.68 7 8 C6.01 7.67 5.02 7.34 4 7 C0 2.54285714 0 2.54285714 0 0 Z " fill="#DFC53A" transform="translate(498,306)"/>
<path d="M0 0 C0.33 0 0.66 0 1 0 C2.12883183 9.06819299 2.28276469 18.15129703 2.40136719 27.27929688 C2.42908751 29.25413091 2.47605046 31.22866499 2.5234375 33.203125 C2.54325684 34.36489258 2.56307617 35.52666016 2.58349609 36.72363281 C3.04596791 40.36159985 4.25831295 42.80121907 6 46 C6 46.66 6 47.32 6 48 C5.34 48 4.68 48 4 48 C-1.05388717 38.43575261 -1.65534666 30.01419775 -1.375 19.5 C-1.35844322 18.04689874 -1.34410815 16.5937704 -1.33203125 15.140625 C-1.18872874 3.8510484 -1.18872874 3.8510484 0 0 Z " fill="#E8E337" transform="translate(492,257)"/>
<path d="M0 0 C0 0.66 0 1.32 0 2 C0.680625 1.79375 1.36125 1.5875 2.0625 1.375 C5.13840429 0.98233137 6.97383641 1.5593852 9.88842773 2.44335938 C14.02153444 3.53290537 18.26927876 3.99700756 22.5 4.5625 C23.41136719 4.68818359 24.32273437 4.81386719 25.26171875 4.94335938 C27.02968195 5.18699644 28.7979021 5.42877818 30.56640625 5.66845703 C33.71319587 6.09716292 36.85667814 6.54663627 40 7 C40 7.33 40 7.66 40 8 C24.46396834 8.84231497 10.14903706 6.33452636 -5 3 C-2.25 0 -2.25 0 0 0 Z " fill="#ED8024" transform="translate(582,255)"/>
<path d="M0 0 C0.33 0 0.66 0 1 0 C1.29321709 4.98469052 1.18338925 8.04820644 -2 12 C-8.26393477 17.15853452 -17.32812426 16.12177581 -25 16 C-25 15.34 -25 14.68 -25 14 C-27.31 14 -29.62 14 -32 14 C-32 13.67 -32 13.34 -32 13 C-31.29915283 12.98541748 -30.59830566 12.97083496 -29.8762207 12.95581055 C-26.68776991 12.88114513 -23.50034487 12.78454525 -20.3125 12.6875 C-19.20970703 12.66494141 -18.10691406 12.64238281 -16.97070312 12.61914062 C-15.90400391 12.58369141 -14.83730469 12.54824219 -13.73828125 12.51171875 C-12.75899658 12.48553467 -11.77971191 12.45935059 -10.77075195 12.43237305 C-7.53280716 11.92709503 -5.61190729 10.96204092 -3 9 C-2.67 8.01 -2.34 7.02 -2 6 C-1.34 6 -0.68 6 0 6 C0 4.02 0 2.04 0 0 Z " fill="#DB741F" transform="translate(647,248)"/>
<path d="M0 0 C22.75941423 -0.26987448 22.75941423 -0.26987448 29 4 C30.670625 4.680625 30.670625 4.680625 32.375 5.375 C36.41018783 7.1838773 39.48042857 9.34236443 43 12 C42.67 12.99 42.34 13.98 42 15 C41.443125 14.61328125 40.88625 14.2265625 40.3125 13.828125 C31.57884356 7.86799459 24.55948792 4.47522258 14 3 C14 2.34 14 1.68 14 1 C9.38 1 4.76 1 0 1 C0 0.67 0 0.34 0 0 Z " fill="#E2DF45" transform="translate(543,167)"/>
<path d="M0 0 C2.97 0 5.94 0 9 0 C9 2.31 9 4.62 9 7 C6.03 7 3.06 7 0 7 C0 4.69 0 2.38 0 0 Z " fill="#F27B13" transform="translate(872,227)"/>
<path d="M0 0 C2.97 0 5.94 0 9 0 C9 2.31 9 4.62 9 7 C6.03 7 3.06 7 0 7 C0 4.69 0 2.38 0 0 Z " fill="#F27B13" transform="translate(807,227)"/>
<path d="M0 0 C3.94108742 1.93508406 7.81162479 4.00102118 11.6875 6.0625 C12.37650391 6.42666016 13.06550781 6.79082031 13.77539062 7.16601562 C18.88309152 9.88309152 18.88309152 9.88309152 20 11 C20.04092937 13.33297433 20.04241723 15.66705225 20 18 C19.67 18 19.34 18 19 18 C19.04125 17.0925 19.0825 16.185 19.125 15.25 C18.35947856 11.89621985 18.35947856 11.89621985 15.84765625 10.74609375 C11.96202725 9.19983023 8.07016504 7.95824398 4 7 C4 6.01 4 5.02 4 4 C2.68 4 1.36 4 0 4 C0 2.68 0 1.36 0 0 Z " fill="#F68B20" transform="translate(627,236)"/>
<path d="M0 0 C0.99 0.33 1.98 0.66 3 1 C3 1.66 3 2.32 3 3 C3.66 3 4.32 3 5 3 C5.46444522 7.7373412 5.66529126 10.94841058 3.0625 15.0625 C-1.05158942 17.66529126 -4.2626588 17.46444522 -9 17 C-9.66 15.68 -10.32 14.36 -11 13 C-10.38511719 13.15597656 -9.77023437 13.31195313 -9.13671875 13.47265625 C-8.32847656 13.66730469 -7.52023437 13.86195313 -6.6875 14.0625 C-5.88699219 14.25972656 -5.08648438 14.45695313 -4.26171875 14.66015625 C-1.84042821 15.19885554 -1.84042821 15.19885554 1 14 C2.58493084 10.83013832 2.2940042 7.45967739 2 4 C1.13734032 1.59442147 1.13734032 1.59442147 0 0 Z " fill="#FBF245" transform="translate(573,208)"/>
<path d="M0 0 C-1.65 0.66 -3.3 1.32 -5 2 C-5.30346876 7.56359398 -4.69785554 11.70044599 -2.75390625 16.921875 C-2.02513308 18.93072125 -1.48255126 20.91987611 -1 23 C-1.99 22.67 -2.98 22.34 -4 22 C-4.33 20.35 -4.66 18.7 -5 17 C-5.66 17 -6.32 17 -7 17 C-7 11.39 -7 5.78 -7 0 C-3.86650268 -1.04449911 -3.01031744 -0.93423645 0 0 Z " fill="#D1B13A" transform="translate(575,259)"/>
<path d="M0 0 C0.33 0.99 0.66 1.98 1 3 C0.360625 3.5775 -0.27875 4.155 -0.9375 4.75 C-3.09367604 7.10219205 -3.36448663 8.00400842 -4 11 C-5.375 13.75 -5.375 13.75 -7 16 C-7.99 16 -8.98 16 -10 16 C-10.33 17.32 -10.66 18.64 -11 20 C-11.33 19.01 -11.66 18.02 -12 17 C-8.87021047 10.80845984 -4.60832518 5.16691005 0 0 Z " fill="#F9ED49" transform="translate(510,182)"/>
<path d="M0 0 C0.94010722 2.5382895 1.14791047 3.64297472 0.09375 6.1875 C-1.2169906 9.55797584 -1.65627388 12.73009325 -2.125 16.3125 C-2.29257812 17.56675781 -2.46015625 18.82101563 -2.6328125 20.11328125 C-2.75398438 21.06589844 -2.87515625 22.01851562 -3 23 C-3.66 23 -4.32 23 -5 23 C-6.43037074 17.5284011 -5.39376752 13.85738166 -3.625 8.6875 C-3.39039063 7.95982422 -3.15578125 7.23214844 -2.9140625 6.48242188 C-1.17195085 1.17195085 -1.17195085 1.17195085 0 0 Z " fill="#F2EB48" transform="translate(497,202)"/>
<path d="M0 0 C0.66 0 1.32 0 2 0 C3.06860995 1.16629452 4.0802998 2.38505932 5.0625 3.625 C8.81570118 8.07499803 13.03304955 11.02658748 18 14 C17.34 14.66 16.68 15.32 16 16 C13.5 14.625 13.5 14.625 11 13 C11 12.34 11 11.68 11 11 C9.68 10.67 8.36 10.34 7 10 C7 9.34 7 8.68 7 8 C6.01 7.67 5.02 7.34 4 7 C0 2.54285714 0 2.54285714 0 0 Z " fill="#F4E639" transform="translate(498,306)"/>
<path d="M0 0 C0.99 0 1.98 0 3 0 C4.7890625 2.1953125 4.7890625 2.1953125 6.625 5.125 C7.23601563 6.07632813 7.84703125 7.02765625 8.4765625 8.0078125 C10.04143762 11.08138774 10.62565993 13.59047015 11 17 C10.34 17 9.68 17 9 17 C8.67 15.35 8.34 13.7 8 12 C7.01 11.67 6.02 11.34 5 11 C4.9175 10.071875 4.835 9.14375 4.75 8.1875 C3.88508253 4.51160074 3.05938298 3.97379547 0 2 C0 1.34 0 0.68 0 0 Z " fill="#E1C639" transform="translate(590,186)"/>
<path d="M0 0 C0.33 0 0.66 0 1 0 C1.738041 14.78132118 1.738041 14.78132118 -3 21 C-3.66 21 -4.32 21 -5 21 C-5.625 19.125 -5.625 19.125 -6 17 C-5.34 16.34 -4.68 15.68 -4 15 C-3.01 15 -2.02 15 -1 15 C-0.67 10.05 -0.34 5.1 0 0 Z " fill="#AF9B28" transform="translate(584,309)"/>
<path d="M0 0 C5.97842675 3.24914497 11.47131676 7.03981643 17 11 C16.01 11.33 15.02 11.66 14 12 C11.5625 10.6875 11.5625 10.6875 9 9 C8.01 8.566875 8.01 8.566875 7 8.125 C4.15400892 6.52413002 2.17299538 4.41443931 0 2 C0 1.34 0 0.68 0 0 Z " fill="#F48B23" transform="translate(606,222)"/>
<path d="M0 0 C0.33 0 0.66 0 1 0 C1.33 5.28 1.66 10.56 2 16 C1.01 16 0.02 16 -1 16 C-1.02712153 14.083412 -1.04645097 12.1667127 -1.0625 10.25 C-1.07410156 9.18265625 -1.08570313 8.1153125 -1.09765625 7.015625 C-1.01510087 4.46631499 -0.74617558 2.42066409 0 0 Z " fill="#F4EA2F" transform="translate(492,257)"/>
<path d="M0 0 C3.19934367 3.19934367 2.98298792 6.34333382 3.09765625 10.76953125 C3.09108215 12.11722242 3.07926444 13.46489707 3.0625 14.8125 C3.05798828 15.50537109 3.05347656 16.19824219 3.04882812 16.91210938 C3.03713156 18.60811068 3.01919924 20.30406703 3 22 C2.67 22 2.34 22 2 22 C1.93941406 21.22914063 1.87882813 20.45828125 1.81640625 19.6640625 C1.73261719 18.66117187 1.64882813 17.65828125 1.5625 16.625 C1.48128906 15.62726563 1.40007813 14.62953125 1.31640625 13.6015625 C1.15034374 11.02072387 1.15034374 11.02072387 0 9 C-0.06950541 7.45976004 -0.08452357 5.91665012 -0.0625 4.375 C-0.05347656 3.55773437 -0.04445313 2.74046875 -0.03515625 1.8984375 C-0.02355469 1.27195312 -0.01195312 0.64546875 0 0 Z " fill="#D5C23E" transform="translate(581,298)"/>
<path d="M0 0 C0 4.15560231 -2.2820452 5.84099329 -5 8.6875 C-5.47695313 9.19861328 -5.95390625 9.70972656 -6.4453125 10.23632812 C-7.62359915 11.49709484 -8.81095253 12.74937686 -10 14 C-10.99 13.67 -11.98 13.34 -13 13 C-12.319375 12.505 -11.63875 12.01 -10.9375 11.5 C-7.20762886 8.32564158 -4.16751394 4.7209774 -1 1 C-0.67 0.67 -0.34 0.34 0 0 Z " fill="#EA8511" transform="translate(597,240)"/>
<path d="M0 0 C9.59453303 2.89066059 9.59453303 2.89066059 13 6 C10 7 10 7 7.51953125 6.00390625 C6.62621094 5.52824219 5.73289062 5.05257813 4.8125 4.5625 C3.91144531 4.08941406 3.01039063 3.61632812 2.08203125 3.12890625 C1.39496094 2.75636719 0.70789063 2.38382812 0 2 C0 1.34 0 0.68 0 0 Z " fill="#E4CD3B" transform="translate(515,321)"/>
<path d="M0 0 C0.66 0 1.32 0 2 0 C2.86366822 1.78710586 3.71568594 3.5798465 4.5625 5.375 C5.27599609 6.87160156 5.27599609 6.87160156 6.00390625 8.3984375 C6.33261719 9.25695312 6.66132812 10.11546875 7 11 C6.67 11.66 6.34 12.32 6 13 C3.57206296 10.83049884 2.3943719 8.99994161 1.3125 5.9375 C1.06113281 5.24527344 0.80976562 4.55304688 0.55078125 3.83984375 C0 2 0 2 0 0 Z " fill="#E0C93C" transform="translate(574,284)"/>
<path d="M0 0 C1.64666203 0.1135629 3.29236082 0.24117381 4.9375 0.375 C5.85402344 0.44460938 6.77054688 0.51421875 7.71484375 0.5859375 C8.84599609 0.79089844 8.84599609 0.79089844 10 1 C10.33 1.66 10.66 2.32 11 3 C9.54257537 3.08096803 8.08387193 3.13917774 6.625 3.1875 C5.81289063 3.22230469 5.00078125 3.25710938 4.1640625 3.29296875 C3.44992187 3.19628906 2.73578125 3.09960938 2 3 C1.34 2.01 0.68 1.02 0 0 Z " fill="#DAC143" transform="translate(540,331)"/>
<path d="M0 0 C0.33 0 0.66 0 1 0 C1.2954439 5.02254631 0.98514628 7.89542386 -2 12 C-2.99 11.67 -3.98 11.34 -5 11 C-3.625 8.5 -3.625 8.5 -2 6 C-1.34 6 -0.68 6 0 6 C0 4.02 0 2.04 0 0 Z " fill="#C86516" transform="translate(647,248)"/>
<path d="M0 0 C0.99 0.33 1.98 0.66 3 1 C1.44499019 4.81684226 -1.03595495 7.19195732 -4 10 C-4.66 9.67 -5.32 9.34 -6 9 C-5.38125 8.443125 -4.7625 7.88625 -4.125 7.3125 C-1.93893621 4.93354822 -1.01214301 3.03642904 0 0 Z " fill="#FBD133" transform="translate(512,180)"/>
<path d="M0 0 C3.60296594 -0.41176754 4.78402067 -0.1535853 7.8125 2 C8.534375 2.66 9.25625 3.32 10 4 C9.67 4.99 9.34 5.98 9 7 C7.4972763 6.02501855 5.99788037 5.04490611 4.5 4.0625 C3.6646875 3.51722656 2.829375 2.97195312 1.96875 2.41015625 C1.3190625 1.94480469 0.669375 1.47945312 0 1 C0 0.67 0 0.34 0 0 Z " fill="#EFE244" transform="translate(576,175)"/>
<path d="M0 0 C3.99455527 0.61454696 6.74466336 2.70646737 10 5 C9.34 5.66 8.68 6.32 8 7 C5.5 5.625 5.5 5.625 3 4 C3 3.34 3 2.68 3 2 C2.01 2 1.02 2 0 2 C0 1.34 0 0.68 0 0 Z " fill="#F2D540" transform="translate(506,315)"/>
<path d="M0 0 C0.66 0 1.32 0 2 0 C2 0.66 2 1.32 2 2 C3.65 2.33 5.3 2.66 7 3 C7 3.33 7 3.66 7 4 C3.7 3.67 0.4 3.34 -3 3 C-2.01 2.01 -1.02 1.02 0 0 Z " fill="#EB9327" transform="translate(580,255)"/>
<path d="M0 0 C0.33 0 0.66 0 1 0 C1.66 3.63 2.32 7.26 3 11 C2.01 10.67 1.02 10.34 0 10 C-0.95024979 6.30458414 -0.95024979 3.69541586 0 0 Z " fill="#E9D83A" transform="translate(560,210)"/>
<path d="M0 0 C2 3 2 3 3 6 C2.0625 8.1875 2.0625 8.1875 1 10 C0.34 10 -0.32 10 -1 10 C-0.67 6.7 -0.34 3.4 0 0 Z " fill="#D07319" transform="translate(604,216)"/>
<path d="M0 0 C2 1 2 1 2 1 Z " fill="#FFFF00" transform="translate(548,335)"/>
<path d="" fill="#FFFF00" transform="translate(0,0)"/>
<path d="" fill="#000000" transform="translate(0,0)"/>
</svg>
